HIERARCHY
ROOT Hips
{
  OFFSET -0.288389 97.7614 1.1032
  CHANNELS 6 Xposition Yposition Zposition Zrotation Xrotation Yrotation
  JOINT Spine
  {
    OFFSET 0 10.1816 0.1315
    CHANNELS 3 Zrotation Xrotation Yrotation
    JOINT Spine1
    {
      OFFSET 0 10.0835 -1.0008
      CHANNELS 3 Zrotation Xrotation Yrotation
      JOINT Spine2
      {
        OFFSET 0 9.1 -1.3734
        CHANNELS 3 Zrotation Xrotation Yrotation
        JOINT Neck
        {
          OFFSET 0 16.6717 -2.5162
          CHANNELS 3 Zrotation Xrotation Yrotation
          JOINT Head
          {
            OFFSET 0 9.6179 1.685
            CHANNELS 3 Zrotation Xrotation Yrotation
            End Site
            {
              OFFSET 0 0 0
            }
          }
        }
        JOINT LeftShoulder
        {
          OFFSET 4.5704 10.946 -2.628
          CHANNELS 3 Zrotation Xrotation Yrotation
          JOINT LeftArm
          {
            OFFSET 10.5924 -0.5246 -2.2321
            CHANNELS 3 Zrotation Xrotation Yrotation
            JOINT LeftForeArm
            {
              OFFSET 27.8415 -0.0001 0
              CHANNELS 3 Zrotation Xrotation Yrotation
              JOINT LeftHand
              {
                OFFSET 28.3288 0 0
                CHANNELS 3 Zrotation Xrotation Yrotation
                End Site
                {
                  OFFSET 0 0 0
                }
              }
            }
          }
        }
        JOINT RightShoulder
        {
          OFFSET -4.57 10.9462 -2.628
          CHANNELS 3 Zrotation Xrotation Yrotation
          JOINT RightArm
          {
            OFFSET -10.5928 -0.5248 -2.2321
            CHANNELS 3 Zrotation Xrotation Yrotation
            JOINT RightForeArm
            {
              OFFSET -27.8415 0 0
              CHANNELS 3 Zrotation Xrotation Yrotation
              JOINT RightHand
              {
                OFFSET -28.3288 0 0.0001
                CHANNELS 3 Zrotation Xrotation Yrotation
                End Site
                {
                  OFFSET 0 0 0
                }
              }
            }
          }
        }
      }
    }
  }
  JOINT LeftUpLeg
  {
    OFFSET 8.2078 -6.7517 -1.5996
    CHANNELS 3 Zrotation Xrotation Yrotation
    JOINT LeftLeg
    {
      OFFSET 0 -44.3705 0.2846
      CHANNELS 3 Zrotation Xrotation Yrotation
      JOINT LeftFoot
      {
        OFFSET 0 -44.4279 -2.9822
        CHANNELS 3 Zrotation Xrotation Yrotation
        JOINT LeftToeBase
        {
          OFFSET 0 -8.7287 10.7106
          CHANNELS 3 Zrotation Xrotation Yrotation
          End Site
          {
            OFFSET 0 0 0
          }
        }
      }
    }
  }
  JOINT RightUpLeg
  {
    OFFSET -8.2078 -6.7517 -1.5996
    CHANNELS 3 Zrotation Xrotation Yrotation
    JOINT RightLeg
    {
      OFFSET 0 -44.3705 0.2862
      CHANNELS 3 Zrotation Xrotation Yrotation
      JOINT RightFoot
      {
        OFFSET 0 -44.4277 -2.9838
        CHANNELS 3 Zrotation Xrotation Yrotation
        JOINT RightToeBase
        {
          OFFSET 0 -8.7287 10.7106
          CHANNELS 3 Zrotation Xrotation Yrotation
          End Site
          {
            OFFSET 0 0 0
          }
        }
      }
    }
  }
}
MOTION
Frames:	13
Frame Time:	0.0333333
-0.288389 97.7614 1.1032 3.39407 -1.1605 5.52559 -0.933619 5.548 0.0887399 -0.748747 11.0961 0.153867 -0.748747 11.0962 0.153871 -3.43409 -10.4012 -2.14837 2.58226 -17.5496 -3.17127 -15.1746 10.8001 -3.76019 -36.3213 -14.0352 2.88878 0.0958959 -0.136526 -55.2592 17.0507 19.4132 -18.843 -2.04491 -7.77026 -25.9498 62.0392 -0.322501 14.0729 -0.0915864 -0.00838692 114.391 -10.9366 -40.2548 11.1246 9.42978 -22.3248 -2.32108 -1.13717 27.2615 0.330162 -12.6297 -3.85291 -3.70067 0.0626098 0.00296007 -0.0262024 -19.4343 -15.2025 -18.6869 1.83104 38.888 -1.05577 9.13181 -17.7264 -5.34896 0.262087 -0.0127074 -0.109658 
-0.298314 97.7017 1.20018 3.3235 -1.21459 5.12125 -0.925666 5.48991 0.116129 -0.744319 10.9798 0.206779 -0.744318 10.9798 0.206778 -3.48067 -10.5194 -2.1256 2.57448 -16.9851 -3.05974 -15.431 10.5049 -3.84786 -35.5577 -13.1595 2.89377 0.0949294 -0.135317 -55.24 16.9771 18.5428 -18.3395 -1.81051 -7.79517 -25.1559 61.7755 -0.98659 14.1626 -0.0891544 -0.00974282 114.079 -12.1825 -39.0169 10.447 9.76034 -22.2728 -1.85215 -1.15382 27.5744 0.335742 -12.7889 -4.09723 -3.81782 0.0907829 0.00428542 -0.0379951 -18.9589 -15.5163 -17.3963 1.85262 39.1912 -1.07165 9.23058 -18.0531 -6.07648 0.213789 0.182962 -0.00278979 
-0.304707 97.5144 1.36045 3.29886 -1.30945 4.11458 -0.933871 5.29411 0.162207 -0.760502 10.5879 0.296081 -0.760502 10.5879 0.29608 -3.75284 -10.5975 -2.09997 3.04294 -15.3912 -2.80909 -16.3293 9.68055 -4.10616 -34.0225 -11.6684 2.97439 0.0924872 -0.130241 -54.9408 15.8421 17.8751 -17.0028 -1.29799 -7.72659 -22.9921 61.3672 -2.48445 14.5125 -0.0814978 -0.0134955 112.878 -15.1642 -36.0378 9.51071 10.4001 -22.2752 -0.638844 -1.19709 28.4025 0.363031 -12.2169 -3.8993 -3.8787 -0.558251 -0.417555 -0.0253557 -18.0224 -16.4019 -14.4328 1.91926 40.11 -1.12519 9.48057 -18.7202 -7.62462 0.234575 0.2636 -0.0494532 
-0.290035 97.2274 1.40718 3.31092 -1.4766 2.89106 -0.920801 5.01632 0.203022 -0.787919 10.0321 0.369826 -0.787919 10.0322 0.369827 -4.19672 -10.7772 -2.23266 3.88186 -12.9431 -2.67119 -17.7434 8.46279 -4.53641 -31.4331 -9.07018 3.09195 0.0896581 -0.122476 -54.9374 13.6831 16.5025 -14.2292 -0.590101 -7.52561 -19.7748 60.5958 -4.73616 14.9274 -0.0715983 -0.0188689 111.049 -19.3587 -31.9998 8.46228 11.4374 -23.7411 1.82546 -1.39562 32.0358 0.534796 -10.1919 -3.24491 -3.86238 -2.35981 -1.62256 0.40799 -16.7695 -17.5765 -10.5683 2.01463 41.3778 -1.20304 9.952 -19.2435 -9.51347 0.201329 -0.00984928 -0.362059 
-0.190898 96.7984 1.20868 3.13728 -1.9172 1.86795 -0.806814 4.76231 0.243993 -0.752429 9.5241 0.42972 -0.752429 9.5241 0.42972 -4.46385 -11.1955 -2.67547 4.62637 -9.96575 -2.8648 -19.1275 7.02671 -5.1158 -27.749 -4.72466 2.16406 0.0872833 -0.115026 -55.0779 12.0139 12.8997 -10.4712 0.246124 -7.17448 -15.8513 59.3087 -7.94217 15.113 -0.0619489 -0.0245196 109.015 -24.3593 -27.287 7.74338 13.3547 -26.8232 6.34569 -1.81286 38.616 0.883233 -7.63207 -1.88303 -3.82964 -3.44863 -1.47445 1.44684 -14.9979 -18.6595 -6.13223 2.12441 42.9193 -1.42265 10.3339 -19.754 -11.6186 -0.511791 -1.04731 -0.984654 
0.0888704 96.0376 0.794168 2.6573 -2.82972 1.17682 -0.575801 4.62831 0.336475 -0.62333 9.25602 0.57082 -0.623331 9.25601 0.57082 -4.30195 -11.8486 -3.42364 5.04913 -6.95461 -3.37547 -19.9671 5.51319 -5.76855 -23.3319 -0.13628 -1.2747 0.0881628 -0.10836 -54.9419 11.9368 8.35541 -7.21457 0.951893 -6.57328 -11.6604 58.1263 -12.3359 14.7529 -0.0521904 -0.0288326 107.134 -30.0452 -22.0867 8.55406 16.0074 -30.574 12.0909 -2.43492 46.3961 1.47726 -7.15716 -1.052 -3.99731 -1.01936 1.5268 2.74507 -12.9322 -19.533 -1.90824 2.2921 45.308 -1.92105 10.1796 -20.8942 -13.2808 0.0958826 -1.62771 -1.79128 
0.526663 94.8953 0.314007 2.13573 -4.05171 0.712585 -0.418628 4.599 0.479204 -0.482473 9.19707 0.828503 -0.482472 9.19707 0.828504 -3.7789 -12.7155 -4.28024 5.48635 -3.99116 -4.05875 -20.0458 4.02445 -6.43939 -19.3291 1.16394 -7.4062 0.0939983 -0.100385 -54.554 12.6121 6.43894 -5.59063 1.46514 -5.80333 -7.49609 57.6201 -17.5112 13.7223 -0.0404712 -0.031762 105.305 -36.6204 -17.3455 11.3937 18.0355 -33.568 17.4728 -3.01704 52.0012 2.08856 -9.09745 -0.489819 -5.30789 -1.38213 2.40366 3.85784 -11.6096 -20.6341 0.915696 2.66446 49.1455 -2.17561 11.4106 -22.0631 -13.2848 0.156439 -2.67645 -2.57252 
1.06802 93.4306 -0.0541338 1.65399 -5.1855 0.230998 -0.397061 4.54077 0.614345 -0.390971 9.08051 1.07651 -0.390971 9.08051 1.07651 -3.12771 -13.6278 -4.91886 6.33068 -0.550453 -4.74986 -19.1971 2.65507 -7.07808 -17.9166 -2.06525 -14.2636 0.100128 -0.0910551 -54.3217 12.9419 8.51611 -5.20671 2.23662 -5.13576 -3.36625 57.0015 -22.0057 12.3416 -0.0277375 -0.0350046 102.991 -43.695 -14.1281 14.1946 18.524 -35.5099 20.9031 -3.33606 54.5524 2.43302 -10.6605 -0.0428722 -6.6821 1.14173 0.6557 4.49918 -11.3241 -22.3463 1.9083 3.28983 54.1127 -2.36434 13.2472 -22.1919 -11.4227 -0.732439 -4.46138 -3.23615 
1.75263 91.6185 -0.138287 0.948144 -6.43157 -0.732206 -0.3703 4.38375 0.678848 -0.314023 8.76666 1.18513 -0.314023 8.76667 1.18513 -2.58387 -14.0125 -4.98597 7.28805 3.53779 -5.08383 -17.6744 1.45455 -7.59446 -18.93 -5.37345 -18.7627 0.101781 -0.085121 -53.3199 11.9607 11.9962 -4.9267 3.46267 -4.61515 0.621841 55.0829 -23.9131 11.7028 -0.0191632 -0.0386143 99.8526 -49.8034 -11.4419 14.6163 17.9177 -36.5766 20.766 -3.60749 56.4466 2.68693 -9.90083 -1.71856 -5.19027 4.00896 -1.76011 4.80985 -11.2956 -24.8449 2.24049 4.29992 60.4196 -3.32565 13.4249 -20.6085 -8.95142 -0.790492 -6.05053 -3.60334 
2.5029 89.5515 -0.00199217 0.0216421 -8.57779 -2.57446 -0.340249 4.23879 0.666487 -0.309532 8.47682 1.14607 -0.309532 8.47681 1.14607 -2.23339 -13.3187 -4.3905 7.64252 7.27831 -4.63954 -16.3958 0.458691 -7.96504 -19.0449 -3.29143 -18.7913 0.101813 -0.0890908 -48.3575 8.52623 13.6398 -4.73655 4.68581 -4.12608 4.02644 52.1008 -22.2183 13.4419 -0.0181568 -0.0404711 96.1326 -53.7352 -7.97823 13.9808 16.9631 -36.4812 17.025 -4.18732 59.8785 3.20786 -8.08266 -5.60738 -0.680577 4.69661 -3.35461 4.81235 -10.7721 -28.3924 3.97696 6.621 69.0082 -5.57398 12.8404 -16.3203 -7.16201 1.90568 -7.1527 -3.2948 
3.04976 87.6682 0.110158 -0.73153 -11.7309 -4.82594 -0.448058 4.21991 0.608779 -0.578735 8.43831 1.0531 -0.578736 8.43831 1.05309 -2.02418 -11.2735 -3.56504 7.51494 8.7693 -3.74025 -16.1633 -0.242219 -8.26059 -17.5578 6.43392 -14.7293 0.0937806 -0.101401 -38.0067 3.57765 10.3384 -7.09852 5.22154 -3.67157 6.30466 49.3998 -17.6025 18.0054 -0.0224977 -0.0385476 92.4758 -55.4084 -4.465 14.8968 15.6159 -34.7191 12.2081 -4.92996 63.6543 4.29032 -5.90859 -9.74861 3.51133 0.991441 -4.85762 4.46975 -9.17276 -32.0551 7.86052 12.5969 77.9889 -11.4675 10.897 -9.14623 -6.12485 4.04359 -6.84383 -2.48102 
3.17094 86.4436 0.00247063 -0.999634 -14.834 -6.00008 -0.660608 4.28061 0.59227 -1.1298 8.55751 1.0778 -1.1298 8.55751 1.0778 -2.03096 -8.07433 -3.15314 7.85103 6.94339 -3.41095 -17.0597 -0.529861 -8.47835 -17.7392 22.0852 -7.74999 0.0287238 -0.0579713 -26.4678 0.520169 0.920745 -13.0223 4.50404 -3.35164 6.96886 47.44 -11.6891 23.5291 -0.0309557 -0.0354214 89.1343 -54.3695 -2.11484 18.4795 14.2318 -33.036 7.72894 -5.72358 66.6203 5.09335 -7.78715 -10.7266 5.54633 0.551023 -6.1803 4.22564 -6.69953 -34.8409 12.6615 32.6894 84.8712 -31.492 8.03029 -1.83208 -4.03808 2.27187 -3.72316 -1.29886 
2.69654 86.0556 -0.542568 -0.691971 -16.922 -4.84604 -0.933592 4.2797 0.737486 -1.64953 8.55159 1.39445 -1.64952 8.55159 1.39445 -2.48826 -4.87843 -2.45153 8.81837 3.73878 -4.06365 -18.3271 -0.596555 -8.56145 -22.354 29.6114 2.31781 0.00734961 -0.0547409 -20.0187 -4.56275 -3.5853 -16.3761 3.19456 -3.04975 6.55441 45.7663 -6.59093 27.0212 -0.0406651 -0.0349586 86.0692 -49.7572 -0.260404 23.9124 11.804 -32.0731 2.35605 -5.89941 67.1364 5.16178 -9.9297 -9.94472 6.7556 0.632978 -7.12741 4.25855 -3.99563 -36.0507 16.6661 92.2249 87.1437 -91.0209 5.97129 0.938822 0.0519297 0.0499706 -1.38682 0.321427 
